<svg width="50" height="19" viewBox="0 0 50 19" fill="none" xmlns="http://www.w3.org/2000/svg">
<path d="M14.3984 18H10.8828L4.03906 6.77344V18H0.523438V0.9375H4.03906L10.8945 12.1875V0.9375H14.3984V18ZM20.8203 18H17.4219V5.32031H20.8203V18ZM17.2227 2.03906C17.2227 1.53125 17.3906 1.11328 17.7266 0.785156C18.0703 0.457031 18.5352 0.292969 19.1211 0.292969C19.6992 0.292969 20.1602 0.457031 20.5039 0.785156C20.8477 1.11328 21.0195 1.53125 21.0195 2.03906C21.0195 2.55469 20.8438 2.97656 20.4922 3.30469C20.1484 3.63281 19.6914 3.79688 19.1211 3.79688C18.5508 3.79688 18.0898 3.63281 17.7383 3.30469C17.3945 2.97656 17.2227 2.55469 17.2227 2.03906ZM30.7461 8.49609C30.2852 8.43359 29.8789 8.40234 29.5273 8.40234C28.2461 8.40234 27.4062 8.83594 27.0078 9.70312V18H23.6211V5.32031H26.8203L26.9141 6.83203C27.5938 5.66797 28.5352 5.08594 29.7383 5.08594C30.1133 5.08594 30.4648 5.13672 30.793 5.23828L30.7461 8.49609ZM31.4375 11.543C31.4375 10.2852 31.6797 9.16406 32.1641 8.17969C32.6484 7.19531 33.3438 6.43359 34.25 5.89453C35.1641 5.35547 36.2227 5.08594 37.4258 5.08594C39.1367 5.08594 40.5312 5.60938 41.6094 6.65625C42.6953 7.70312 43.3008 9.125 43.4258 10.9219L43.4492 11.7891C43.4492 13.7344 42.9062 15.2969 41.8203 16.4766C40.7344 17.6484 39.2773 18.2344 37.4492 18.2344C35.6211 18.2344 34.1602 17.6484 33.0664 16.4766C31.9805 15.3047 31.4375 13.7109 31.4375 11.6953V11.543ZM34.8242 11.7891C34.8242 12.9922 35.0508 13.9141 35.5039 14.5547C35.957 15.1875 36.6055 15.5039 37.4492 15.5039C38.2695 15.5039 38.9102 15.1914 39.3711 14.5664C39.832 13.9336 40.0625 12.9258 40.0625 11.543C40.0625 10.3633 39.832 9.44922 39.3711 8.80078C38.9102 8.15234 38.2617 7.82812 37.4258 7.82812C36.5977 7.82812 35.957 8.15234 35.5039 8.80078C35.0508 9.44141 34.8242 10.4375 34.8242 11.7891ZM45.7109 16.3359C45.7109 15.7969 45.8906 15.3594 46.25 15.0234C46.6172 14.6875 47.0742 14.5195 47.6211 14.5195C48.1758 14.5195 48.6328 14.6875 48.9922 15.0234C49.3594 15.3594 49.543 15.7969 49.543 16.3359C49.543 16.8672 49.3633 17.3008 49.0039 17.6367C48.6445 17.9648 48.1836 18.1289 47.6211 18.1289C47.0664 18.1289 46.6094 17.9648 46.25 17.6367C45.8906 17.3008 45.7109 16.8672 45.7109 16.3359Z" fill="black"/>
</svg>
